<?xml version="1.0" encoding="UTF-8"?>
<svg width="54px" height="54px" viewBox="0 0 54 54" version="1.1" xmlns="http://www.w3.org/2000/svg" xmlns:xlink="http://www.w3.org/1999/xlink">
    <title>Group 4 Copy 4</title>
    <defs>
        <rect id="path-1" x="0" y="0" width="48" height="48" rx="24"></rect>
    </defs>
    <g id="Page-1" stroke="none" stroke-width="1" fill="none" fill-rule="evenodd">
        <g id="113" transform="translate(-170.000000, -12.000000)">
            <g id="Group-4-Copy-4" transform="translate(173.000000, 13.000000)">
                <g id="×-copy-2">
                    <use fill="black" fill-opacity="1" filter="url(#filter-2)" xlink:href="#path-1"></use>
                    <use fill="#6DA7FF" fill-rule="evenodd" xlink:href="#path-1"></use>
                </g>
                <path d="M18.12,35.4 L18.12,34.24 L16.64,34.24 C15.52,34.24 15.36,33.56 15.68,32.56 L18.24,25.4 L27.08,25.4 L29.6,32.44 C29.96,33.48 29.76,34.24 28.56,34.24 L27.08,34.24 L27.08,35.4 L36.24,35.4 L36.24,34.24 C34.28,34.24 33.84,33.88 33.24,32.04 L24.92,9 L22.64,9 L14.16,31.76 C13.48,33.64 13.12,34.24 11,34.24 L11,35.4 L18.12,35.4 Z M26.6,24.04 L18.72,24.04 L22.6,13.16 L22.72,13.16 L26.6,24.04 Z" id="A" fill="#FFFFFF" fill-rule="nonzero"></path>
            </g>
        </g>
    </g>
</svg>