<?xml version="1.0" encoding="UTF-8"?>
<svg width="54px" height="54px" viewBox="0 0 54 54" version="1.1" xmlns="http://www.w3.org/2000/svg" xmlns:xlink="http://www.w3.org/1999/xlink">
    <title>Group 4 Copy 3</title>
    <defs>
        <rect id="path-1" x="0" y="0" width="48" height="48" rx="24"></rect>
        <!-- <filter x="-11.5%" y="-7.3%" width="122.9%" height="122.9%" filterUnits="objectBoundingBox" id="filter-2">
            <feOffset dx="0" dy="2" in="SourceAlpha" result="shadowOffsetOuter1"></feOffset>
            <feGaussianBlur stdDeviation="1.5" in="shadowOffsetOuter1" result="shadowBlurOuter1"></feGaussianBlur>
            <feColorMatrix values="0 0 0 0 0   0 0 0 0 0   0 0 0 0 0  0 0 0 0.33 0" type="matrix" in="shadowBlurOuter1"></feColorMatrix>
        </filter> -->
        <path d="M18,28 C24.6,28 30,22.6 30,16 C30,9.4 24.6,4 18,4 C11.4,4 6,9.4 6,16 L6,22.2 L2.4,18.6 L1,20 L7,26 L13,20 L11.6,18.6 L8,22.2 L8,16 L8,16 C8,10.5 12.5,6 18,6 C23.5,6 28,10.5 28,16 C28,21.5 23.5,26 18,26 L18,28 Z" id="path-3"></path>
    </defs>
    <g id="Page-1" stroke="none" stroke-width="1" fill="none" fill-rule="evenodd">
        <g id="113" transform="translate(-90.000000, -12.000000)">
            <g id="Group-4-Copy-3" transform="translate(93.000000, 13.000000)">
                <g id="×-copy-2">
                    <use fill="black" fill-opacity="1" filter="url(#filter-2)" xlink:href="#path-1"></use>
                    <use fill="#6DA7FF" fill-rule="evenodd" xlink:href="#path-1"></use>
                </g>
                <g id="icon/navigation/menu/32" transform="translate(8.000000, 8.000000)">
                    <mask id="mask-4" fill="white">
                        <use xlink:href="#path-3"></use>
                    </mask>
                    <use id="icon-color" fill="#FFFFFF" xlink:href="#path-3"></use>
                </g>
            </g>
        </g>
    </g>
</svg>