<?xml version="1.0" encoding="UTF-8"?>
<svg width="36px" height="36px" viewBox="0 0 54 54" version="1.1" xmlns="http://www.w3.org/2000/svg" xmlns:xlink="http://www.w3.org/1999/xlink">
    <title>icon/image/settings/32</title>
    <style>
    #Page-1{transform:translate(9px,9px);}
    </style>
    <g id="Page-1" stroke="none" stroke-width="1" fill="none" fill-rule="evenodd">
        <g id="114-copy-6" transform="translate(-494.000000, -700.000000)" fill="#044ADA">
            <g id="Group" transform="translate(492.000000, 698.000000)">
                <g id="icon/image/settings/32" transform="translate(20.000000, 20.000000) scale(-1, 1) translate(-20.000000, -20.000000) ">
                    <path d="M33.95,10.1 L32.0375,11.7125 C36.1028596,16.52818 35.9474717,23.6170843 31.675,28.25 L33.5125,30 C38.6431259,24.4403832 38.8306913,15.9302693 33.95,10.15 L33.95,10.1 Z M26.975,15 C29.4136078,17.891694 29.3171447,22.1467865 26.75,24.925 L28.5875,26.625 C32.0091375,22.9168963 32.1324173,17.2406634 28.875,13.3875 L26.975,15 Z M22.5,37.5 C22.1659426,37.4986132 21.8463393,37.3635696 21.6125,37.125 L12.0875,27.5 L3.75,27.5 C3.05964406,27.5 2.5,26.9403559 2.5,26.25 L2.5,13.75 C2.5,13.0596441 3.05964406,12.5 3.75,12.5 L12.0875,12.5 L21.6125,2.875 C22.1000468,2.39034551 22.8874532,2.39034551 23.375,2.875 C23.6105178,3.10578808 23.7453037,3.42028842 23.75,3.75 L23.75,36.25 C23.75,36.9403559 23.1903559,37.5 22.5,37.5 L22.5,37.5 Z M5,25 L12.6,25 C12.9340574,25.0013868 13.2536607,25.1364304 13.4875,25.375 L21.25,33.2125 L21.25,6.7875 L13.4875,14.625 C13.2536607,14.8635696 12.9340574,14.9986132 12.6,15 L5,15 L5,25 Z" id="Fill"></path>
                </g>
            </g>
        </g>
    </g>
</svg>